<svg width="802" height="720" viewBox="0 0 802 720" fill="none" xmlns="http://www.w3.org/2000/svg">
<path d="M355.2 1.33334C345.067 3.20001 327.2 9.06668 316.667 14C307.733 18.1333 301.333 24.4 159.067 166.8C15.8667 310.267 10.6667 315.6 6.53332 324.667C2.79999 332.8 2.13332 335.867 1.59999 348C0.799987 365.733 3.73332 377.467 13.7333 396.667C20.5333 409.6 21.7333 411.067 62.2667 452.667C85.0667 476.133 151.067 542.533 208.933 600.133C305.067 696 314.8 705.333 323.333 709.6C336.667 716.533 346.133 718.8 359.733 718.8C372.8 718.8 379.867 717.467 392.8 712.667C406.933 707.333 426.933 694.267 436.533 684.267L440.4 680.133L436.533 679.333C416.933 675.067 404.533 671.067 395.067 666.267C384.4 660.8 381.333 657.867 258.267 534C123.333 398.267 121.867 396.533 115.867 377.467C112.8 367.467 112.267 352.933 114.667 344C119.2 326.933 115.6 330.8 263.2 183.2C373.067 73.4667 403.467 43.7333 409.333 40.5333C415.733 37.2 418 36.6667 427.6 36.6667H438.533L436.4 33.3333C429.6 22.5333 420.267 16.8 409.333 16.8C393.733 16.8 401.867 9.46668 241.067 170.4C132.667 278.8 92.1333 320.267 88.1333 326.667C73.8667 348.933 73.0667 376 85.8667 397.867C88.5333 402.533 309.733 623.2 358.8 670.267C373.067 683.867 375.067 685.333 383.333 687.867C388.267 689.467 395.333 690.667 399.2 690.8C405.333 690.933 405.6 691.067 402 692.133C393.6 694.667 376.533 695.867 366.133 694.533C354.667 693.067 337.467 687.333 330.4 682.533C324.267 678.4 63.6 421.867 50.9333 407.6C33.2 387.733 24.5333 365.067 27.7333 346.933C31.0667 328.267 25.2 334.8 165.733 193.333C236.8 121.867 300.4 58 307.2 51.4667C330.933 28.2667 352.4 17.0667 385.333 10.6667L396.667 8.40001L389.2 4.93334C380.667 0.800011 366.4 -0.666655 355.2 1.33334Z" fill="#313454"/>
<path d="M440 20.2666C440 20.6666 505.067 85.0666 584.667 163.467C664.133 241.733 732.133 309.867 735.733 314.667C749.867 333.6 756.133 349.733 756.133 367.2C756.267 380.4 754.667 386.933 748.4 399.333C743.867 408 732.667 419.6 588.8 563.067L434 717.467L445.333 716.8C458.8 715.867 475.333 712 486.933 707.2C509.067 698.133 507.067 699.867 641.733 565.467C752.8 454.8 769.2 437.733 776.667 426.533C793.067 402.133 799.333 383.867 799.2 360C799.067 347.333 798.533 342.933 795.733 334.267C788.133 311.333 793.2 316.8 644.8 168.267C498.267 21.4666 505.2 27.8666 486.4 23.3333C478.533 21.3333 440 18.8 440 20.2666Z" fill="#406C99"/>
<path d="M442 51.4667C436.667 54.2667 432.4 58.2667 431.6 61.4667C431.067 63.6 457.467 90.9334 558.4 192.933C628.533 263.733 688.533 325.333 691.6 329.733C706.267 350.533 707.6 374 695.6 394.667C692.533 400 656.133 437.333 563.067 530.667C437.6 656.4 434.667 659.467 436.667 662.4C437.867 664 441.333 667.067 444.533 669.2L450.133 673.2L559.467 563.6C708.8 413.733 713.067 409.467 719.067 397.867C731.6 373.6 730.533 349.867 715.733 324.667C709.2 313.6 664.4 267.467 533.067 136.4L446 49.3334L442 51.4667Z" fill="#313454"/>
<path d="M297.333 185.733C220.4 262.4 190.933 292.667 186.267 299.733C154 347.867 159.733 393.867 202.933 434C208.933 439.467 214.533 444 215.467 444C217.733 444 420.8 236.8 423.333 231.867C426.267 226.267 427.2 217.467 425.467 211.2C423.733 204.533 414.8 194.133 407.867 190.667C398.533 185.867 369.467 178.533 342.533 174.133C340 173.6 336.667 172.4 335.2 171.467C332.8 169.6 332.8 169.467 336.667 167.867C339.6 166.667 351.733 166.133 382 166.133C416.267 166 425.867 166.4 438 168.4C485.733 176.533 514 194.133 522.133 221.067C525.733 232.8 524.667 246.267 518.133 272.933C506.267 321.067 501.467 358.933 500.4 412C499.867 441.067 500.267 455.2 501.867 472C504 495.467 509.867 532 511.867 535.6C512.8 537.333 525.6 525.2 578.533 472.667C615.6 435.733 646.133 404.267 648.933 400.133C663.333 378.533 665.733 355.867 655.733 334.667C652 326.667 642.8 317.2 529.467 203.6C447.2 121.2 406.533 81.3334 404.667 81.3334C402.933 81.3334 365.467 117.733 297.333 185.733Z" fill="#313454"/>
<path d="M442.4 190.267C451.2 196.933 455.733 202.667 458.8 210.667C466.8 231.733 455.6 262.667 428.667 293.333C373.2 356.667 328.8 435.6 306.267 510.667C298.933 535.067 298.8 532.267 308.4 539.067L316.933 544.933L320.533 526.8C325.067 504.4 336.933 468 347.867 443.333C369.333 395.067 393.2 355.2 436.267 295.733C446.8 281.2 460.533 254.8 463.333 243.333C465.867 233.067 465.867 218.133 463.2 210.4C460.533 202.4 453.333 194.133 444.8 189.333C435.467 183.867 434.4 184.4 442.4 190.267Z" fill="#313454"/>
<path d="M458.133 192.133C478.933 214.667 471.467 254.4 438 300C405.733 344 380.4 394 357.867 458.133C350.133 480.533 337.733 523.067 333.333 542.667C331.733 549.6 330.267 556 330 556.8C329.6 558 345.333 570.667 347.2 570.667C347.467 570.667 348 565.467 348.533 558.933C350.8 531.067 359.467 491.333 370.667 457.333C384.533 415.333 409.333 361.733 432.667 323.333C454 288.267 458.8 279.867 464.133 267.6C473.867 245.467 477.467 223.6 473.467 209.733C471.467 202.533 464.667 193.6 458.667 190.133L454 187.6L458.133 192.133Z" fill="#406C99"/>
</svg>
